<!DOCTYPE svg PUBLIC "-//W3C//DTD SVG 1.1//EN" "http://www.w3.org/Graphics/SVG/1.1/DTD/svg11.dtd">
<!-- Uploaded to: SVG Repo, www.svgrepo.com, Transformed by: SVG Repo Mixer Tools -->
<svg width="800px" height="800px" viewBox="0 0 48.00 48.00" id="a" xmlns="http://www.w3.org/2000/svg" fill="#ffffff" stroke="#ffffff" stroke-width="2.64">
<g id="SVGRepo_bgCarrier" stroke-width="0"/>
<g id="SVGRepo_tracerCarrier" stroke-linecap="round" stroke-linejoin="round"/>
<g id="SVGRepo_iconCarrier"> <defs> <style>.c{fill:none;stroke:#b78a57;stroke-linecap:round;stroke-linejoin:round;}</style> </defs> <path class="c" d="m31.0691,24c2.4215-2.0239,3.9638-5.0645,3.9638-8.4671,0-6.0933-4.9396-11.0329-11.0329-11.0329s-11.0329,4.9396-11.0329,11.0329c0,3.4026,1.5424,6.4432,3.9638,8.4671-2.4215,2.0239-3.9638,5.0645-3.9638,8.4671,0,6.0933,4.9397,11.0329,11.0329,11.0329s11.0329-4.9396,11.0329-11.0329c0-3.4026-1.5424-6.4432-3.9638-8.4671Z"/> <g> <line class="c" x1="21.6601" y1="32.4671" x2="24.7113" y2="32.4671"/> <polyline class="c" points="26.3399 37.1469 21.6601 37.1469 21.6601 27.7872 26.3399 27.7872"/> </g> <g> <line class="c" x1="21.6601" y1="15.5329" x2="24.7113" y2="15.5329"/> <polyline class="c" points="26.3399 20.2128 21.6601 20.2128 21.6601 10.8531 26.3399 10.8531"/> </g> </g>
</svg>