<!DOCTYPE svg PUBLIC "-//W3C//DTD SVG 1.1//EN" "http://www.w3.org/Graphics/SVG/1.1/DTD/svg11.dtd">
<!-- Uploaded to: SVG Repo, www.svgrepo.com, Transformed by: SVG Repo Mixer Tools -->
<svg height="800px" width="800px" version="1.1" id="Layer_1" xmlns="http://www.w3.org/2000/svg" xmlns:xlink="http://www.w3.org/1999/xlink" viewBox="0 0 480 480" xml:space="preserve" fill="#000000">
<g id="SVGRepo_bgCarrier" stroke-width="0"/>
<g id="SVGRepo_tracerCarrier" stroke-linecap="round" stroke-linejoin="round"/>
<g id="SVGRepo_iconCarrier"> <g transform="translate(0 -540.36)"> <g> <path style="fill:#545454;" d="M13.381,858.743c33.303,96.603,124.221,161.489,226.46,161.617 c102.248-0.118,193.178-65.005,226.484-161.617H325.081v41.084c0,2.914-2.45,5.364-5.363,5.364h-47.28 c-2.913,0-5.363-2.45-5.363-5.364v-41.084L13.381,858.743L13.381,858.743z M273.719,860.259v14.04h20.019v-14.04H273.719z M299.178,860.259v14.04h19.259v-14.04H299.178z M273.719,879.736v18.81h20.019v-18.81H273.719z M299.178,879.736v18.81h19.259 v-18.81H299.178z"/> </g> <path style="fill:#FCD116;" d="M241.239,540.362c-48.331-0.22-95.601,14.158-135.614,41.25 C52.55,617.654,16.14,673.448,4.535,736.519H4.256C1.929,750.98,0.187,766.822,0,780.668c0.097,26.587,4.618,52.972,13.381,78.076 l228.939,49.971h113.236l110.769-49.971c4.368-12.787,7.647-25.92,9.801-39.26l0.582,0.098 c15.823-94.576-26.276-189.475-107.029-241.261C331.341,553.736,286.79,540.569,241.239,540.362z"/> <g> <path style="fill:#545454;" d="M136.909,795.427v39.021c-6.696-2.673-14.591-4.103-22.671-4.106 c-14.544,0.007-27.967,4.619-35.175,12.085c-4.538-1.014-9.347-1.538-14.199-1.547c-22.388,0-40.538,10.727-40.538,23.959 c0,13.232,18.15,23.959,40.538,23.959c9.248-0.003,18.217-1.875,25.417-5.305c-5.931,4.277-9.177,9.635-9.185,15.165 c-0.001,13.233,18.149,23.961,40.538,23.961c9.557-0.009,18.802-2.014,26.101-5.661c0.95,12.807,18.788,22.903,40.478,22.91 c22.388,0,40.538-10.727,40.538-23.959c-0.002-6.263-4.154-1.372-11.566-5.848h118.617c-0.474,1.461-0.716,2.945-0.725,4.432 c0,13.232,18.15,13.054,40.538,13.054c22.389,0,40.54-10.727,40.54-23.959c-0.013-3.57-1.376-7.093-3.988-10.311 c2.055,0.198,4.133,0.303,6.215,0.313c22.388,0,40.538-10.727,40.538-23.959c0-13.232-18.15-23.959-40.538-23.959 c-1.999,0.007-3.995,0.101-5.971,0.281c-4.554-10.622-20.721-18.064-39.261-18.074c-5.965,0.009-11.853,0.795-17.244,2.303 v-34.755L136.909,795.427L136.909,795.427z M272.438,808.604h47.28c2.913,0,5.363,2.448,5.363,5.362v85.861 c0,2.914-2.45,5.364-5.363,5.364h-47.28c-2.913,0-5.363-2.45-5.363-5.364v-85.861 C267.075,811.052,269.525,808.604,272.438,808.604z M273.719,815.249v17.834h20.019v-17.834H273.719L273.719,815.249z M299.178,815.249v17.834h19.259v-17.834H299.178z M171.27,819.683h52.208c0.436,0,0.787,0.351,0.787,0.787v33.138 c0,0.436-0.351,0.789-0.787,0.789H171.27c-0.436,0-0.787-0.353-0.787-0.789V820.47 C170.483,820.034,170.834,819.683,171.27,819.683z M273.719,838.519v16.304h20.019v-16.304H273.719L273.719,838.519z M299.178,838.519v16.304h19.259v-16.304H299.178z M273.719,860.259v14.04h20.019v-14.04H273.719L273.719,860.259z M299.178,860.259v14.04h19.259v-14.04H299.178z M273.719,879.736v18.81h20.019v-18.81H273.719L273.719,879.736z M299.178,879.736 v18.81h19.259v-18.81H299.178z"/> <path style="fill:#545454;" d="M165.186,682.815c-0.666,0-1.203,0.537-1.203,1.203v3.967c0,0.666,0.537,1.203,1.203,1.203h0.213 v22.09l-30.32,0.115l-10.164,75.167h237.319c0.383,0,0.749,0.064,1.103,0.154l-11.064-76.152l-158.659,0.606v-21.981h0.064 c0.666,0,1.203-0.537,1.203-1.203v-3.967c0-0.666-0.537-1.203-1.203-1.203H165.186L165.186,682.815z"/> <path style="fill:#545454;" d="M89.153,663.079c0,2.441-1.98,4.42-4.422,4.42h0c-2.442,0-4.422-1.979-4.422-4.42l0,0 c0-2.441,1.98-4.42,4.422-4.42l0,0C87.173,658.659,89.153,660.638,89.153,663.079L89.153,663.079z"/> <path style="fill:#545454;" d="M186.446,614.462c0,2.441-1.98,4.42-4.422,4.42l0,0c-2.442,0-4.422-1.979-4.422-4.42l0,0 c0-2.441,1.98-4.42,4.422-4.42h0C184.466,610.043,186.446,612.022,186.446,614.462L186.446,614.462z"/> <path style="fill:#545454;" d="M271.435,624.346c0,2.441-1.98,4.42-4.422,4.42c0,0,0,0,0,0c-2.442,0-4.422-1.979-4.422-4.42l0,0 c0-2.441,1.98-4.42,4.422-4.42c0,0,0,0,0,0C269.455,619.927,271.435,621.905,271.435,624.346L271.435,624.346z"/> <path style="fill:#545454;" d="M276.639,697.678c0,2.441-1.98,4.42-4.422,4.42c0,0,0,0,0,0c-2.442,0-4.422-1.979-4.422-4.42l0,0 c0-2.441,1.98-4.42,4.422-4.42c0,0,0,0,0,0C274.659,693.259,276.639,695.237,276.639,697.678L276.639,697.678z"/> <path style="fill:#545454;" d="M390.978,701.263c0,2.441-1.98,4.42-4.422,4.42c0,0,0,0,0,0c-2.442,0-4.422-1.979-4.422-4.42l0,0 c0-2.441,1.98-4.42,4.422-4.42c0,0,0,0,0,0C388.999,696.843,390.978,698.822,390.978,701.263L390.978,701.263z"/> <path style="fill:#545454;" d="M131.166,594.574c0,2.441-1.98,4.42-4.422,4.42l0,0c-2.442,0-4.422-1.979-4.422-4.42l0,0 c0-2.441,1.98-4.42,4.422-4.42h0C129.186,590.154,131.166,592.133,131.166,594.574L131.166,594.574z"/> <path style="fill:#545454;" d="M123.775,696.25c0,2.441-1.98,4.42-4.422,4.42l0,0c-2.442,0-4.422-1.979-4.422-4.42l0,0 c0-2.441,1.98-4.42,4.422-4.42h0C121.795,691.83,123.775,693.809,123.775,696.25L123.775,696.25z"/> <path style="fill:#545454;" d="M40.954,731.972c0,2.441-1.98,4.42-4.422,4.42c0,0,0,0,0,0c-2.442,0-4.422-1.979-4.422-4.42l0,0 c0-2.441,1.98-4.42,4.422-4.42c0,0,0,0,0,0C38.974,727.552,40.954,729.531,40.954,731.972L40.954,731.972z"/> <path style="fill:#545454;" d="M97.621,769.436c0,2.441-1.98,4.42-4.422,4.42h0c-2.442,0-4.422-1.979-4.422-4.42l0,0 c0-2.441,1.98-4.42,4.422-4.42l0,0C95.641,765.016,97.621,766.995,97.621,769.436L97.621,769.436z"/> <path style="fill:#545454;" d="M18.286,793.832c0,2.441-1.98,4.42-4.422,4.42c0,0,0,0,0,0c-2.442,0-4.422-1.979-4.422-4.42l0,0 c0-2.441,1.98-4.42,4.422-4.42c0,0,0,0,0,0C16.306,789.412,18.286,791.391,18.286,793.832L18.286,793.832z"/> <path style="fill:#545454;" d="M437.625,823.454c0,2.441-1.98,4.42-4.422,4.42c0,0,0,0,0,0c-2.442,0-4.422-1.979-4.422-4.42l0,0 c0-2.441,1.98-4.42,4.422-4.42c0,0,0,0,0,0C435.645,819.035,437.625,821.013,437.625,823.454L437.625,823.454z"/> <path style="fill:#545454;" d="M417.755,765.897c0,2.441-1.98,4.42-4.422,4.42c0,0,0,0,0,0c-2.442,0-4.422-1.979-4.422-4.42l0,0 c0-2.441,1.98-4.42,4.422-4.42c0,0,0,0,0,0C415.775,761.478,417.755,763.456,417.755,765.897L417.755,765.897z"/> <path style="fill:#545454;" d="M456.269,714.341c0,2.441-1.98,4.42-4.422,4.42c0,0,0,0,0,0c-2.442,0-4.422-1.979-4.422-4.42l0,0 c0-2.441,1.98-4.42,4.422-4.42c0,0,0,0,0,0C454.289,709.921,456.269,711.9,456.269,714.341L456.269,714.341z"/> <path style="fill:#545454;" d="M410.089,642.058c0,2.441-1.98,4.42-4.422,4.42c0,0,0,0,0,0c-2.442,0-4.422-1.979-4.422-4.42l0,0 c0-2.441,1.98-4.42,4.422-4.42c0,0,0,0,0,0C408.109,637.639,410.089,639.617,410.089,642.058L410.089,642.058z"/> <path style="fill:#545454;" d="M347.246,623.914c0,2.441-1.98,4.42-4.422,4.42c0,0,0,0,0,0c-2.442,0-4.422-1.979-4.422-4.42l0,0 c0-2.441,1.98-4.42,4.422-4.42c0,0,0,0,0,0C345.266,619.494,347.246,621.473,347.246,623.914L347.246,623.914z"/> <path style="fill:#545454;" d="M297.264,570.788c0,2.441-1.98,4.42-4.422,4.42c0,0,0,0,0,0c-2.442,0-4.422-1.979-4.422-4.42l0,0 c0-2.441,1.98-4.42,4.422-4.42c0,0,0,0,0,0C295.284,566.369,297.264,568.347,297.264,570.788L297.264,570.788z"/> <path style="fill:#545454;" d="M224.904,572.531c0,2.441-1.98,4.42-4.422,4.42l0,0c-2.442,0-4.422-1.979-4.422-4.42l0,0 c0-2.441,1.98-4.42,4.422-4.42l0,0C222.924,568.111,224.904,570.09,224.904,572.531L224.904,572.531z"/> <path style="fill:#545454;" d="M170.09,550.817c-1.462,0.446-2.918,0.907-4.371,1.381c-0.706,0.805-1.095,1.838-1.096,2.908 c0.001,2.44,1.98,4.418,4.422,4.418c2.442,0,4.421-1.978,4.422-4.418C173.465,553.069,172.07,551.298,170.09,550.817z"/> <path style="fill:#545454;" d="M61.018,620.782c-1.88,2.118-3.706,4.279-5.508,6.46c0.818,1.238,2.203,1.983,3.687,1.985 c2.442,0,4.422-1.979,4.422-4.42v0C63.618,623.07,62.601,621.497,61.018,620.782z"/> <path style="fill:#545454;" d="M231.007,670.112c0,2.441-1.98,4.42-4.422,4.42l0,0c-2.442,0-4.422-1.979-4.422-4.42l0,0 c0-2.441,1.98-4.42,4.422-4.42l0,0C229.027,665.693,231.007,667.671,231.007,670.112L231.007,670.112z"/> </g> <path style="fill:#83732E;" d="M171.651,628.953c-4.667,0-8.451,3.782-8.451,8.446c0.004,3.786,2.528,7.106,6.176,8.126 c-0.447,1.365-0.677,2.791-0.68,4.227c0.003,0.128,0.007,0.255,0.014,0.383c-6.169,1.455-10.531,6.955-10.539,13.29 c-0.001,7.552,6.125,13.674,13.681,13.675c0.001,0,0.001,0,0.002,0c0.656-0.004,1.311-0.056,1.959-0.154 c2.23,1.47,4.842,2.255,7.514,2.258c7.557-0.001,13.682-6.123,13.681-13.675c0,0,0,0,0,0c-0.004-2.523-0.706-4.996-2.029-7.145 c1.99-2.437,3.079-5.486,3.082-8.632c0-7.551-6.125-13.673-13.681-13.673c-0.792,0-1.582,0.069-2.361,0.205 C179.459,632.091,175.883,628.958,171.651,628.953L171.651,628.953z"/> <g> <path style="fill:#545454;" d="M374.826,581.728c-1.776,0.618-2.967,2.291-2.969,4.17c0.001,2.44,1.98,4.418,4.422,4.418 c2.442,0,4.421-1.978,4.422-4.418c0-0.023-0.001-0.047-0.002-0.07C378.768,584.433,376.807,583.07,374.826,581.728 L374.826,581.728z"/> <path style="fill:#545454;" d="M324.368,676.508c0,2.441-1.98,4.42-4.422,4.42c0,0,0,0,0,0c-2.442,0-4.422-1.979-4.422-4.42l0,0 c0-2.441,1.98-4.42,4.422-4.42c0,0,0,0,0,0C322.388,672.089,324.368,674.068,324.368,676.508L324.368,676.508z"/> </g> </g> </g>
</svg>